<svg xmlns="http://www.w3.org/2000/svg" width="27.091" height="25.971" viewBox="0 0 27.091 25.971">
  <g id="Icon_ionic-ios-heart-empty" data-name="Icon ionic-ios-heart-empty" transform="translate(0.5 0.5)">
    <path id="Icon_ionic-ios-heart-empty-2" data-name="Icon ionic-ios-heart-empty" d="M22.441,3.938h-.063A7.152,7.152,0,0,0,16.42,7.169a7.152,7.152,0,0,0-5.958-3.231H10.4A7.058,7.058,0,0,0,3.375,10.96a15.038,15.038,0,0,0,3,8.246A52.347,52.347,0,0,0,16.42,28.794a52.347,52.347,0,0,0,10.048-9.588,15.038,15.038,0,0,0,3-8.246A7.058,7.058,0,0,0,22.441,3.938ZM25.051,18.18a47.9,47.9,0,0,1-8.63,8.426,47.974,47.974,0,0,1-8.63-8.433A13.328,13.328,0,0,1,5.131,10.96,5.233,5.233,0,0,1,6.674,7.243a5.321,5.321,0,0,1,3.738-1.56h.056a5.3,5.3,0,0,1,2.578.671,5.46,5.46,0,0,1,1.907,1.771,1.771,1.771,0,0,0,2.948,0,5.515,5.515,0,0,1,1.907-1.771,5.3,5.3,0,0,1,2.578-.671h.056a5.332,5.332,0,0,1,3.738,1.56,5.218,5.218,0,0,1,1.543,3.716A13.5,13.5,0,0,1,25.051,18.18Z" transform="translate(-3.375 -3.938)" fill="#fff" stroke="#fff" stroke-width="1"/>
  </g>
</svg>
