<svg xmlns="http://www.w3.org/2000/svg" width="26.091" height="24.97" viewBox="0 0 26.091 24.97">
  <g id="Icon_ionic-ios-heart-empty" data-name="Icon ionic-ios-heart-empty" transform="translate(0.5 0.5)">
    <path id="Icon_ionic-ios-heart-empty-2" data-name="Icon ionic-ios-heart-empty" d="M21.711,3.938h-.06a6.882,6.882,0,0,0-5.73,3.1,6.882,6.882,0,0,0-5.73-3.1h-.06a6.781,6.781,0,0,0-6.755,6.74,14.415,14.415,0,0,0,2.883,7.914,50.3,50.3,0,0,0,9.662,9.2,50.3,50.3,0,0,0,9.662-9.2,14.415,14.415,0,0,0,2.883-7.914A6.781,6.781,0,0,0,21.711,3.938Zm-.054,1.676Z" transform="translate(-3.375 -3.938)" fill="#da2949" stroke="#db2949" stroke-width="1"/>
  </g>
</svg>
